<?xml version="1.0" encoding="UTF-8" standalone="no"?>
<svg width="191px" height="16px" viewBox="0 0 191 16" version="1.1" xmlns="http://www.w3.org/2000/svg" xmlns:xlink="http://www.w3.org/1999/xlink" xmlns:sketch="http://www.bohemiancoding.com/sketch/ns">
    <!-- Generator: Sketch 3.0.4 (8054) - http://www.bohemiancoding.com/sketch -->
    <title>cd-nav-icons</title>
    <desc>Created with Sketch.</desc>
    <defs></defs>
    <g id="Page-1" stroke="none" stroke-width="1" fill="none" fill-rule="evenodd" sketch:type="MSPage">
        <g id="cd-nav-icons" sketch:type="MSLayerGroup" fill="#585C64">
            <g id="Group" sketch:type="MSShapeGroup">
                <path d="M15,16 L1,16 C0.4,16 0,15.6 0,15 L0,1 C0,0.4 0.4,0 1,0 L15,0 C15.6,0 16,0.4 16,1 L16,15 C16,15.6 15.6,16 15,16 L15,16 Z M2,14 L14,14 L14,2 L2,2 L2,14 L2,14 Z" id="Shape"></path>
                <path d="M6,4 C6.6,4 7,4.4 7,5 C7,5.6 6.6,6 6,6 C5.4,6 5,5.6 5,5 C5,4.4 5.4,4 6,4 L6,4 Z" id="Shape"></path>
                <path d="M3,12 L5,8 L7,10 L10,6 L13,12 L3,12 Z" id="Shape"></path>
            </g>
            <g id="Group" transform="translate(17.000000, 0.000000)" sketch:type="MSShapeGroup">
                <path d="M7,2 C8.1,2 9,2.9 9,4 L9,5 C9,6.1 8.1,7 7,7 C5.9,7 5,6.1 5,5 L5,4 C5,2.9 5.9,2 7,2 L7,2 Z M7,0 C4.8,0 3,1.8 3,4 L3,5 C3,7.2 4.8,9 7,9 C9.2,9 11,7.2 11,5 L11,4 C11,1.8 9.2,0 7,0 L7,0 L7,0 Z" id="Shape"></path>
                <path d="M8,12 C9.5,12 10.8,12.8 11.5,14 L2.6,14 C3.3,12.8 4.6,12 6.1,12 L8,12 L8,12 Z M8,10 L6,10 C2.7,10 0,12.7 0,16 L0,16 L14,16 C14,12.7 11.3,10 8,10 L8,10 L8,10 Z" id="Shape"></path>
            </g>
            <g id="Group" transform="translate(33.000000, 0.000000)" sketch:type="MSShapeGroup">
                <path d="M11,0 L0,0 L0,16 L11,16 C12.7,16 14,14.7 14,13 L14,3 C14,1.3 12.7,0 11,0 L11,0 Z M12,13 C12,13.6 11.6,14 11,14 L2,14 L2,2 L11,2 C11.6,2 12,2.4 12,3 L12,13 L12,13 Z" id="Shape"></path>
                <path d="M4,9 L6,7 L8,9 L8,3 L4,3 L4,9 Z" id="Shape"></path>
            </g>
            <g id="Group" transform="translate(48.000000, 0.000000)" sketch:type="MSShapeGroup">
                <path d="M8,0 C3.6,0 0,3.1 0,7 C0,10.9 3.6,14 8,14 L8.6,14 L14,16 L14,11.6 C15.2,10.4 16,8.8 16,7 C16,3.1 12.4,0 8,0 L8,0 Z M12,10.8 L12,13.1 L8.9,12 L8,12 C4.7,12 2,9.8 2,7 C2,4.2 4.7,2 8,2 C11.3,2 14,4.2 14,7 C14,9.2 12,10.8 12,10.8 L12,10.8 Z" id="Shape"></path>
            </g>
            <g id="Group" transform="translate(64.000000, 0.000000)" sketch:type="MSShapeGroup">
                <path d="M8,0 C3.6,0 0,3.6 0,8 C0,12.4 3.6,16 8,16 C12.4,16 16,12.4 16,8 C16,3.6 12.4,0 8,0 L8,0 Z M13.9,9 L8.7,9 L6.9,4.6 L5.1,5.4 L6.5,9 L2.1,9 C2,8.7 2,8.3 2,8 C2,4.7 4.7,2 8,2 C11.3,2 14,4.7 14,8 C14,8.3 14,8.7 13.9,9 L13.9,9 Z" id="Shape"></path>
            </g>
            <g id="Group" transform="translate(81.000000, 0.000000)" sketch:type="MSShapeGroup">
                <path d="M10,14 L6,14 C6,15.1 6.9,16 8,16 C9.1,16 10,15.1 10,14 L10,14 Z" id="Shape"></path>
                <path d="M15,11 L14.5,11 C13.8,10.3 13,9.3 13,8 L13,5 C13,2.2 10.8,0 8,0 C5.2,0 3,2.2 3,5 L3,8 C3,9.3 2.2,10.3 1.5,11 L1,11 C0.4,11 0,11.4 0,12 C0,12.6 0.4,13 1,13 L15,13 C15.6,13 16,12.6 16,12 C16,11.4 15.6,11 15,11 L15,11 Z" id="Shape"></path>
            </g>
            <g id="Car" transform="translate(98.000000, 0.000000)" sketch:type="MSShapeGroup">
                <path d="M14.1511111,1.01 C13.9733333,0.42 13.4755556,0 12.8888889,0 L3.11111111,0 C2.52444444,0 2.03555556,0.42 1.84888889,1.01 L0,7 L0,15 C0,15.55 0.4,16 0.888888889,16 L1.77777778,16 C2.26666667,16 2.66666667,15.55 2.66666667,15 L2.66666667,14 L13.3333333,14 L13.3333333,15 C13.3333333,15.55 13.7333333,16 14.2222222,16 L15.1111111,16 C15.6,16 16,15.55 16,15 L16,7 L14.1511111,1.01 L14.1511111,1.01 Z M3.11111111,11 C2.37333333,11 1.77777778,10.33 1.77777778,9.5 C1.77777778,8.67 2.37333333,8 3.11111111,8 C3.84888889,8 4.44444444,8.67 4.44444444,9.5 C4.44444444,10.33 3.84888889,11 3.11111111,11 L3.11111111,11 Z M12.8888889,11 C12.1511111,11 11.5555556,10.33 11.5555556,9.5 C11.5555556,8.67 12.1511111,8 12.8888889,8 C13.6266667,8 14.2222222,8.67 14.2222222,9.5 C14.2222222,10.33 13.6266667,11 12.8888889,11 L12.8888889,11 Z M1.77777778,6 L3.11111111,1.5 L12.8888889,1.5 L14.2222222,6 L1.77777778,6 L1.77777778,6 Z" id="Shape"></path>
            </g>
            <g id="parking" transform="translate(116.000000, 0.000000)" sketch:type="MSShapeGroup">
                <path d="M7.53846154,0 L0,0 L0,16 L4.30769231,16 L4.30769231,10.6666667 L7.53846154,10.6666667 C11.1030769,10.6666667 14,8.27555556 14,5.33333333 C14,2.39111111 11.1030769,0 7.53846154,0 L7.53846154,0 Z M7.75384615,7.11111111 L4.30769231,7.11111111 L4.30769231,3.55555556 L7.75384615,3.55555556 C8.93846154,3.55555556 9.90769231,4.35555556 9.90769231,5.33333333 C9.90769231,6.31111111 8.93846154,7.11111111 7.75384615,7.11111111 L7.75384615,7.11111111 Z" id="Shape"></path>
            </g>
            <g id="tag" transform="translate(132.000000, 0.000000)" sketch:type="MSShapeGroup">
                <path d="M15.528,7.664 L8.328,0.464 C8.04,0.176 7.64,0 7.2,0 L1.6,0 C0.72,0 0,0.72 0,1.6 L0,7.2 C0,7.64 0.176,8.04 0.472,8.336 L7.672,15.536 C7.96,15.824 8.36,16 8.8,16 C9.24,16 9.64,15.824 9.928,15.528 L15.528,9.928 C15.824,9.64 16,9.24 16,8.8 C16,8.36 15.816,7.952 15.528,7.664 L15.528,7.664 Z M2.8,4 C2.136,4 1.6,3.464 1.6,2.8 C1.6,2.136 2.136,1.6 2.8,1.6 C3.464,1.6 4,2.136 4,2.8 C4,3.464 3.464,4 2.8,4 L2.8,4 Z" id="Shape"></path>
            </g>
            <g id="ic_traffic_24px" transform="translate(149.000000, 0.000000)" sketch:type="MSShapeGroup">
                <path d="M14,6.22222222 L11.375,6.22222222 L11.375,5.20888889 C12.88,4.80888889 14,3.43111111 14,1.77777778 L11.375,1.77777778 L11.375,0.888888889 C11.375,0.4 10.98125,0 10.5,0 L3.5,0 C3.01875,0 2.625,0.4 2.625,0.888888889 L2.625,1.77777778 L0,1.77777778 C0,3.43111111 1.12,4.80888889 2.625,5.20888889 L2.625,6.22222222 L0,6.22222222 C0,7.87555556 1.12,9.25333333 2.625,9.65333333 L2.625,10.6666667 L0,10.6666667 C0,12.32 1.12,13.6977778 2.625,14.0977778 L2.625,15.1111111 C2.625,15.6 3.01875,16 3.5,16 L10.5,16 C10.98125,16 11.375,15.6 11.375,15.1111111 L11.375,14.0977778 C12.88,13.6977778 14,12.32 14,10.6666667 L11.375,10.6666667 L11.375,9.65333333 C12.88,9.25333333 14,7.87555556 14,6.22222222 L14,6.22222222 Z M7,14.2222222 C6.02875,14.2222222 5.25,13.4222222 5.25,12.4444444 C5.25,11.4666667 6.02875,10.6666667 7,10.6666667 C7.9625,10.6666667 8.75,11.4666667 8.75,12.4444444 C8.75,13.4222222 7.97125,14.2222222 7,14.2222222 L7,14.2222222 Z M7,9.77777778 C6.02875,9.77777778 5.25,8.97777778 5.25,8 C5.25,7.02222222 6.02875,6.22222222 7,6.22222222 C7.9625,6.22222222 8.75,7.02222222 8.75,8 C8.75,8.97777778 7.97125,9.77777778 7,9.77777778 L7,9.77777778 Z M7,5.33333333 C6.02875,5.33333333 5.25,4.53333333 5.25,3.55555556 C5.25,2.56888889 6.02875,1.77777778 7,1.77777778 C7.9625,1.77777778 8.75,2.56888889 8.75,3.55555556 C8.75,4.53333333 7.97125,5.33333333 7,5.33333333 L7,5.33333333 Z" id="Shape"></path>
            </g>
            <g id="ic_local_atm_24px" transform="translate(164.000000, 2.000000)" sketch:type="MSShapeGroup">
                <path d="M7.2,9.75 L8.8,9.75 L8.8,9 L9.6,9 C10.04,9 10.4,8.6625 10.4,8.25 L10.4,6 C10.4,5.5875 10.04,5.25 9.6,5.25 L7.2,5.25 L7.2,4.5 L10.4,4.5 L10.4,3 L8.8,3 L8.8,2.25 L7.2,2.25 L7.2,3 L6.4,3 C5.96,3 5.6,3.3375 5.6,3.75 L5.6,6 C5.6,6.4125 5.96,6.75 6.4,6.75 L8.8,6.75 L8.8,7.5 L5.6,7.5 L5.6,9 L7.2,9 L7.2,9.75 L7.2,9.75 Z M14.4,0 L1.6,0 C0.712,0 0.008,0.6675 0.008,1.5 L0,10.5 C0,11.3325 0.712,12 1.6,12 L14.4,12 C15.288,12 16,11.3325 16,10.5 L16,1.5 C16,0.6675 15.288,0 14.4,0 L14.4,0 Z M14.4,10.5 L1.6,10.5 L1.6,1.5 L14.4,1.5 L14.4,10.5 L14.4,10.5 Z" id="Shape"></path>
            </g>
            <g id="ic_place_24px" transform="translate(181.000000, 0.000000)" sketch:type="MSShapeGroup">
                <path d="M5,0 C2.23571429,0 0,2.504 0,5.6 C0,9.8 5,16 5,16 C5,16 10,9.8 10,5.6 C10,2.504 7.76428571,0 5,0 L5,0 Z M5,7.6 C4.01428571,7.6 3.21428571,6.704 3.21428571,5.6 C3.21428571,4.496 4.01428571,3.6 5,3.6 C5.98571429,3.6 6.78571429,4.496 6.78571429,5.6 C6.78571429,6.704 5.98571429,7.6 5,7.6 L5,7.6 Z" id="Shape"></path>
            </g>
        </g>
    </g>
</svg>